<mxfile host="app.diagrams.net" modified="2024-04-25T08:28:23.103Z" agent="Mozilla/5.0 (X11; Linux x86_64) AppleWebKit/537.36 (KHTML, like Gecko) Chrome/119.0.0.0 Safari/537.36" version="24.2.1" etag="o5Qb-hUFzMltQL84ny2x" type="github">
  <diagram name="第 1 页" id="jxOvMMUj18_BXOIknRvy">
    <mxGraphModel>
      <root>
        <mxCell id="0" />
        <mxCell id="1" parent="0" />
      </root>
    </mxGraphModel>
  </diagram>
</mxfile>
